<?xml version="1.0" encoding="UTF-8" standalone="no"?>
<svg
   width="72.135612"
   height="72.135605"
   viewBox="0 0 72.135612 72.135605"
   fill="none"
   version="1.1"
   id="svg14"
   sodipodi:docname="logo.svg"
   inkscape:version="1.2.1 (9c6d41e410, 2022-07-14)"
   xmlns:inkscape="http://www.inkscape.org/namespaces/inkscape"
   xmlns:sodipodi="http://sodipodi.sourceforge.net/DTD/sodipodi-0.dtd"
   xmlns="http://www.w3.org/2000/svg"
   xmlns:svg="http://www.w3.org/2000/svg">
  <defs
     id="defs18" />
  <sodipodi:namedview
     id="namedview16"
     pagecolor="#ffffff"
     bordercolor="#000000"
     borderopacity="0.25"
     inkscape:showpageshadow="2"
     inkscape:pageopacity="0.0"
     inkscape:pagecheckerboard="0"
     inkscape:deskcolor="#d1d1d1"
     showgrid="false"
     inkscape:zoom="4.5488722"
     inkscape:cx="86.614876"
     inkscape:cy="24.401653"
     inkscape:window-width="1366"
     inkscape:window-height="745"
     inkscape:window-x="-8"
     inkscape:window-y="-8"
     inkscape:window-maximized="1"
     inkscape:current-layer="svg14" />
  <circle
     style="fill:#333333;stroke-width:11.3186;stroke-linecap:round;stroke-linejoin:round"
     id="path286"
     cx="36.067806"
     cy="36.067802"
     r="36" />
  <path
     d="m 36.067814,5.8380068 c -5.978857,0 -11.823528,1.7729469 -16.794777,5.0946382 -4.971247,3.321693 -8.845883,8.042924 -11.1339079,13.566672 -2.2880223,5.523832 -2.8866738,11.602009 -1.7202522,17.466042 1.1664191,5.863948 4.0455321,11.250409 8.2732341,15.478146 4.227735,4.227651 9.614113,7.106823 15.478146,8.273259 5.864032,1.166354 11.942209,0.567755 17.465958,-1.720278 5.523832,-2.288033 10.245063,-6.16266 13.566772,-11.133909 C 64.524611,47.89133 66.297608,42.046658 66.297608,36.0678 H 51.182712 c 0,2.989471 -0.886499,5.911723 -2.547353,8.397389 -1.660855,2.485666 -4.02147,4.422938 -6.783302,5.566912 -2.761916,1.144058 -5.801005,1.443357 -8.732979,0.860182 -2.932058,-0.58326 -5.625247,-2.022763 -7.739115,-4.136631 -2.113868,-2.113867 -3.55337,-4.807056 -4.13663,-7.739114 -0.583177,-2.931975 -0.283878,-5.971063 0.860097,-8.732979 1.144058,-2.761833 3.08133,-5.122532 5.566996,-6.783302 2.485666,-1.660855 5.407918,-2.547353 8.397388,-2.547353 z"
     fill="#ffffff"
     id="path6"
     style="stroke-width:0.838138" />
  <path
     d="m 36.067814,5.8380068 c -3.96984,0 -7.900791,0.7819166 -11.568483,2.301108 -3.667608,1.5191837 -7.000129,3.7458982 -9.80722,6.5529822 -2.807083,2.807091 -5.0337981,6.139612 -6.5529819,9.807304 C 6.6199369,28.167009 5.8380207,32.09796 5.8380213,36.0678 H 20.952918 c 0,-1.984878 0.390992,-3.950396 1.150512,-5.784241 0.759605,-1.833847 1.872987,-3.500064 3.276533,-4.90361 1.403546,-1.403547 3.069764,-2.516929 4.90361,-3.276533 1.833846,-0.759521 3.799279,-1.150512 5.784241,-1.150512 z"
     fill="#5ce1e6"
     id="path8"
     style="stroke-width:0.838138" />
  <circle
     cx="36.067814"
     cy="36.067799"
     r="9.4468212"
     fill="#5ce1e6"
     id="circle10"
     style="stroke-width:0.838138" />
  <path
     d="m 45.514636,36.0678 c 0,-1.240528 -0.244317,-2.468986 -0.719123,-3.61514 -0.474721,-1.146154 -1.170543,-2.18754 -2.047822,-3.064735 -0.877195,-0.877196 -1.918582,-1.573102 -3.064736,-2.047823 -1.146153,-0.474722 -2.374528,-0.719122 -3.615141,-0.719122 -1.240611,0 -2.468986,0.2444 -3.615139,0.719122 -1.146155,0.474721 -2.187541,1.170627 -3.064736,2.047823 -0.87728,0.877195 -1.573101,1.918581 -2.047823,3.064735 -0.474721,1.146154 -0.719122,2.374612 -0.719122,3.61514 h 9.44682 z"
     fill="#ffffff"
     id="path12"
     style="stroke-width:0.838138" />
</svg>
